<mxfile host="Electron" modified="2024-04-12T00:18:43.088Z" agent="Mozilla/5.0 (Windows NT 10.0; Win64; x64) AppleWebKit/537.36 (KHTML, like Gecko) draw.io/24.1.0 Chrome/120.0.6099.109 Electron/28.1.0 Safari/537.36" etag="D1n8gv_bdTmk_CNGd4dK" version="24.1.0" type="device">
  <diagram name="Page-1" id="IM4WYIzad9q6i7QdrHJo">
    <mxGraphModel dx="1434" dy="884" grid="1" gridSize="10" guides="1" tooltips="1" connect="1" arrows="1" fold="1" page="1" pageScale="1" pageWidth="850" pageHeight="1100" math="0" shadow="0">
      <root>
        <mxCell id="0" />
        <mxCell id="1" parent="0" />
        <mxCell id="VXd7-PdvuC2-FFocu2_k-4" value="" style="edgeStyle=orthogonalEdgeStyle;rounded=0;orthogonalLoop=1;jettySize=auto;html=1;" edge="1" parent="1" source="VXd7-PdvuC2-FFocu2_k-1" target="VXd7-PdvuC2-FFocu2_k-3">
          <mxGeometry relative="1" as="geometry" />
        </mxCell>
        <mxCell id="VXd7-PdvuC2-FFocu2_k-1" value="INICIO" style="strokeWidth=2;html=1;shape=mxgraph.flowchart.start_1;whiteSpace=wrap;" vertex="1" parent="1">
          <mxGeometry x="370" y="120" width="100" height="60" as="geometry" />
        </mxCell>
        <mxCell id="VXd7-PdvuC2-FFocu2_k-2" value="FIN" style="strokeWidth=2;html=1;shape=mxgraph.flowchart.terminator;whiteSpace=wrap;" vertex="1" parent="1">
          <mxGeometry x="370" y="730" width="100" height="60" as="geometry" />
        </mxCell>
        <mxCell id="VXd7-PdvuC2-FFocu2_k-6" value="" style="edgeStyle=orthogonalEdgeStyle;rounded=0;orthogonalLoop=1;jettySize=auto;html=1;" edge="1" parent="1" source="VXd7-PdvuC2-FFocu2_k-3" target="VXd7-PdvuC2-FFocu2_k-5">
          <mxGeometry relative="1" as="geometry" />
        </mxCell>
        <mxCell id="VXd7-PdvuC2-FFocu2_k-3" value="FORK A MI REPOSITORIO" style="whiteSpace=wrap;html=1;strokeWidth=2;" vertex="1" parent="1">
          <mxGeometry x="360" y="230" width="120" height="60" as="geometry" />
        </mxCell>
        <mxCell id="VXd7-PdvuC2-FFocu2_k-8" value="" style="edgeStyle=orthogonalEdgeStyle;rounded=0;orthogonalLoop=1;jettySize=auto;html=1;" edge="1" parent="1" source="VXd7-PdvuC2-FFocu2_k-5" target="VXd7-PdvuC2-FFocu2_k-7">
          <mxGeometry relative="1" as="geometry" />
        </mxCell>
        <mxCell id="VXd7-PdvuC2-FFocu2_k-5" value="CLONE A MI LOCAL" style="whiteSpace=wrap;html=1;strokeWidth=2;" vertex="1" parent="1">
          <mxGeometry x="570" y="230" width="120" height="60" as="geometry" />
        </mxCell>
        <mxCell id="VXd7-PdvuC2-FFocu2_k-10" value="" style="edgeStyle=orthogonalEdgeStyle;rounded=0;orthogonalLoop=1;jettySize=auto;html=1;" edge="1" parent="1" source="VXd7-PdvuC2-FFocu2_k-7" target="VXd7-PdvuC2-FFocu2_k-9">
          <mxGeometry relative="1" as="geometry" />
        </mxCell>
        <mxCell id="VXd7-PdvuC2-FFocu2_k-7" value="TRABAJO MIS CAMBIOS" style="whiteSpace=wrap;html=1;strokeWidth=2;" vertex="1" parent="1">
          <mxGeometry x="570" y="320" width="120" height="60" as="geometry" />
        </mxCell>
        <mxCell id="VXd7-PdvuC2-FFocu2_k-12" value="" style="edgeStyle=orthogonalEdgeStyle;rounded=0;orthogonalLoop=1;jettySize=auto;html=1;" edge="1" parent="1" source="VXd7-PdvuC2-FFocu2_k-9" target="VXd7-PdvuC2-FFocu2_k-11">
          <mxGeometry relative="1" as="geometry" />
        </mxCell>
        <mxCell id="VXd7-PdvuC2-FFocu2_k-9" value="SUBO MIS CAMBIOS" style="whiteSpace=wrap;html=1;strokeWidth=2;" vertex="1" parent="1">
          <mxGeometry x="570" y="420" width="120" height="60" as="geometry" />
        </mxCell>
        <mxCell id="VXd7-PdvuC2-FFocu2_k-14" value="" style="edgeStyle=orthogonalEdgeStyle;rounded=0;orthogonalLoop=1;jettySize=auto;html=1;" edge="1" parent="1" source="VXd7-PdvuC2-FFocu2_k-11" target="VXd7-PdvuC2-FFocu2_k-13">
          <mxGeometry relative="1" as="geometry" />
        </mxCell>
        <mxCell id="VXd7-PdvuC2-FFocu2_k-11" value="PULL REQUEST" style="whiteSpace=wrap;html=1;strokeWidth=2;" vertex="1" parent="1">
          <mxGeometry x="360" y="420" width="120" height="60" as="geometry" />
        </mxCell>
        <mxCell id="VXd7-PdvuC2-FFocu2_k-16" value="" style="edgeStyle=orthogonalEdgeStyle;rounded=0;orthogonalLoop=1;jettySize=auto;html=1;" edge="1" parent="1" source="VXd7-PdvuC2-FFocu2_k-13" target="VXd7-PdvuC2-FFocu2_k-15">
          <mxGeometry relative="1" as="geometry" />
        </mxCell>
        <mxCell id="VXd7-PdvuC2-FFocu2_k-21" value="SI" style="edgeLabel;html=1;align=center;verticalAlign=middle;resizable=0;points=[];" vertex="1" connectable="0" parent="VXd7-PdvuC2-FFocu2_k-16">
          <mxGeometry y="-1" relative="1" as="geometry">
            <mxPoint as="offset" />
          </mxGeometry>
        </mxCell>
        <mxCell id="VXd7-PdvuC2-FFocu2_k-18" value="" style="edgeStyle=orthogonalEdgeStyle;rounded=0;orthogonalLoop=1;jettySize=auto;html=1;" edge="1" parent="1" source="VXd7-PdvuC2-FFocu2_k-13" target="VXd7-PdvuC2-FFocu2_k-17">
          <mxGeometry relative="1" as="geometry">
            <Array as="points">
              <mxPoint x="220" y="550" />
            </Array>
          </mxGeometry>
        </mxCell>
        <mxCell id="VXd7-PdvuC2-FFocu2_k-20" value="NO" style="edgeLabel;html=1;align=center;verticalAlign=middle;resizable=0;points=[];" vertex="1" connectable="0" parent="VXd7-PdvuC2-FFocu2_k-18">
          <mxGeometry x="0.1684" y="3" relative="1" as="geometry">
            <mxPoint as="offset" />
          </mxGeometry>
        </mxCell>
        <mxCell id="VXd7-PdvuC2-FFocu2_k-13" value="¿APROBADO?" style="rhombus;whiteSpace=wrap;html=1;strokeWidth=2;" vertex="1" parent="1">
          <mxGeometry x="350" y="510" width="140" height="80" as="geometry" />
        </mxCell>
        <mxCell id="VXd7-PdvuC2-FFocu2_k-15" value="INTEGRAR CAMBIOS" style="whiteSpace=wrap;html=1;strokeWidth=2;" vertex="1" parent="1">
          <mxGeometry x="360" y="630" width="120" height="60" as="geometry" />
        </mxCell>
        <mxCell id="VXd7-PdvuC2-FFocu2_k-19" style="edgeStyle=orthogonalEdgeStyle;rounded=0;orthogonalLoop=1;jettySize=auto;html=1;exitX=0.5;exitY=0;exitDx=0;exitDy=0;entryX=0.5;entryY=0;entryDx=0;entryDy=0;" edge="1" parent="1" source="VXd7-PdvuC2-FFocu2_k-17" target="VXd7-PdvuC2-FFocu2_k-11">
          <mxGeometry relative="1" as="geometry">
            <Array as="points">
              <mxPoint x="220" y="390" />
              <mxPoint x="420" y="390" />
            </Array>
          </mxGeometry>
        </mxCell>
        <mxCell id="VXd7-PdvuC2-FFocu2_k-17" value="CORREGIR" style="whiteSpace=wrap;html=1;strokeWidth=2;" vertex="1" parent="1">
          <mxGeometry x="160" y="420" width="120" height="60" as="geometry" />
        </mxCell>
        <mxCell id="VXd7-PdvuC2-FFocu2_k-22" style="edgeStyle=orthogonalEdgeStyle;rounded=0;orthogonalLoop=1;jettySize=auto;html=1;exitX=0.5;exitY=1;exitDx=0;exitDy=0;entryX=0.5;entryY=0;entryDx=0;entryDy=0;entryPerimeter=0;" edge="1" parent="1" source="VXd7-PdvuC2-FFocu2_k-15" target="VXd7-PdvuC2-FFocu2_k-2">
          <mxGeometry relative="1" as="geometry" />
        </mxCell>
        <mxCell id="VXd7-PdvuC2-FFocu2_k-23" value="DIAGRAMA DE FLUJO BÁSICO&amp;nbsp;&lt;div&gt;PARA UN REPOSITORIO GIT&lt;/div&gt;" style="text;html=1;align=center;verticalAlign=middle;resizable=0;points=[];autosize=1;strokeColor=none;fillColor=none;" vertex="1" parent="1">
          <mxGeometry x="320" y="55" width="200" height="40" as="geometry" />
        </mxCell>
      </root>
    </mxGraphModel>
  </diagram>
</mxfile>
